<svg id="Layer_1" data-name="Layer 1" xmlns="http://www.w3.org/2000/svg" xmlns:xlink="http://www.w3.org/1999/xlink" viewBox="0 0 1057.97 811.75"><defs><style>.cls-1{fill:none;}.cls-2{clip-path:url(#clip-path);}.cls-3{fill:#e5d22d;}.cls-4{fill:#231f20;}.cls-5{clip-path:url(#clip-path-2);}.cls-6,.cls-8{fill:#fff;}.cls-7{clip-path:url(#clip-path-3);}.cls-8{font-size:59.29px;font-family:Raleway-Medium, Raleway;font-weight:500;}</style><clipPath id="clip-path" transform="translate(-11.48 -133.7)"><rect class="cls-1" x="172.78" y="133.69" width="736" height="811.76"/></clipPath><clipPath id="clip-path-2" transform="translate(-11.48 -133.7)"><rect class="cls-1" x="859.91" y="539.78" width="209.52" height="207.24"/></clipPath><clipPath id="clip-path-3" transform="translate(-11.48 -133.7)"><rect class="cls-1" x="11.44" y="539.78" width="217.1" height="210.85"/></clipPath></defs><g class="cls-2"><path class="cls-3" d="M907.46,381.09l-1.08-8.2-7.92-2.34a115.37,115.37,0,0,1-35.07-19.46,91.24,91.24,0,0,1-22.81-26.86c-6.07-11.15-10.13-24.57-10.14-41.48,0-16.29,3.86-36,14.06-59.57l4-9.32-8.22-6c-.66-.49-23.28-16.94-65.24-34.24S671.85,138.1,594,134.22c0,0-11.25-.56-11.25-.52,2.13,11.09-1.87,21.69-5.66,26.47-3.1,3.89-8.33,7.71-14.41,10.54a47.26,47.26,0,0,1-36.44,1.86,49.73,49.73,0,0,1-17.91-11.33c-3.65-3.58-9.11-15.14-8.3-24.41l-11.21,1.09c-70.48,8.23-150,28.79-237.3,68.64l-10.22,4.68,3.36,10.68a187.32,187.32,0,0,1,6.86,49.81,141.23,141.23,0,0,1-2.87,29.17c-3.13,14.7-9,28.89-19.26,40.93s-24.84,22.21-47,28.68l-9.62,2.8.45,10c0,.43,2.44,55,16.19,125,6.87,35,16.58,73.87,30.33,111.83a498.72,498.72,0,0,0,25.33,58.31A535.69,535.69,0,0,0,324,799.45,518.82,518.82,0,0,0,464.23,913a440.34,440.34,0,0,0,50.49,23.86l1.85.73,27.35,7.88,26.82-7.14,1.57-.55a409.9,409.9,0,0,0,48.91-21.1l-.21.11.33-.17a492.6,492.6,0,0,0,87.71-57.38c45.33-36.83,81.42-76,110.31-121.36l.2-.28c.38-.55,23.17-32.67,46-85.76S911.26,524.6,911.27,440A455.85,455.85,0,0,0,907.46,381.09Z" transform="translate(-11.48 -133.7)"/></g><path class="cls-4" d="M883.51,393l-.29-2.77-2.57-1.07a143.74,143.74,0,0,1-33.88-20.32,114.45,114.45,0,0,1-28.57-33.77,108.76,108.76,0,0,1-13-52.69c0-17.6,3.72-36.73,11.2-57l1.34-3.63-3.33-2a374.1,374.1,0,0,0-50-24.86c-34.12-14.1-88.46-31.4-158.45-36.72l-.26,0-.95.12-.85.19s-7.47,12.61-10,15.84c-6.74,8.49-16.16,14.1-22.89,17.22h0a72.13,72.13,0,0,1-30.36,6.84,71.05,71.05,0,0,1-23.89-4.16,72.74,72.74,0,0,1-26.56-16.71,48.14,48.14,0,0,1-8.69-12.49l-1.5-3-3.34.47c-67.19,9.24-136.09,29.31-205.19,59.71l-3.49,1.54.79,3.72a218.87,218.87,0,0,1,4.68,43.77v.1a164.42,164.42,0,0,1-3.4,34c-4.27,20.12-12.46,37.29-24.31,51.21-12.22,14.32-27.47,24.86-46.85,32.22L195.54,390l.25,3.49a968.31,968.31,0,0,0,15,109.82c7.76,39.53,17.64,76,29.37,108.37a477.23,477.23,0,0,0,24.1,55.47v0l.18.39.2.37a512.71,512.71,0,0,0,75.45,115.73A495.9,495.9,0,0,0,473.88,892a417,417,0,0,0,47.75,22.6l.56.22.21.07,20,5.78,19.62-5.21.69-.26a388.35,388.35,0,0,0,46.1-19.9l.07,0h0a457.24,457.24,0,0,0,83.42-54.58c34.12-28,108.06-99.51,149.86-198.56C870.8,574.38,886,506.42,886,439.64A436.66,436.66,0,0,0,883.51,393Zm-50,245.51c-40.8,96.88-113.87,167.7-147.16,195a447.47,447.47,0,0,1-81.7,53.46l-.11.06a377.65,377.65,0,0,1-45,19.4l-.33.11-16.7,4.46L525.43,906l-.35-.16a403,403,0,0,1-46.65-22.05,487.56,487.56,0,0,1-131.2-106.26,503.7,503.7,0,0,1-74.09-113.66l0-.06-.19-.4-.2-.4,0-.07A469.4,469.4,0,0,1,249,608.51c-11.53-31.86-21.3-67.87-29-107A949.84,949.84,0,0,1,205.46,396.1c19.08-7.78,34.87-18.76,47.38-33.44,13-15.22,21.81-33.92,26.36-55.36a174.46,174.46,0,0,0,3.59-35.95v-.1a223.37,223.37,0,0,0-4.17-41.88c66.2-28.81,132-48,196.19-57.1a54.53,54.53,0,0,0,8.7,11.94,82.15,82.15,0,0,0,30,18.9,80.2,80.2,0,0,0,61.42-3.06c7.51-3.51,18.14-9.69,26.27-19.87a59.17,59.17,0,0,0,7.17-12.35c67.24,5.53,119.54,22.16,152.38,35.73a369,369,0,0,1,45.58,22.34c-6.89,19.73-10.56,38.67-10.56,56.46a118.3,118.3,0,0,0,14.16,57.2,124,124,0,0,0,30.88,36.56,152.11,152.11,0,0,0,33.53,20.47,425.92,425.92,0,0,1,2.26,43.05C876.61,505,861.72,571.7,833.55,638.5Z" transform="translate(-11.48 -133.7)"/><path class="cls-4" d="M863.89,622.9c59.73-23.27,102.15-43.21,156.81-80-5.45,31.17,2.7,52.46-6.31,83.86,23,13.17,27.59,37.28,52,48.89-50.92,32-84.9,47.34-139.45,69.48q-32.41-60.71-63.07-122.24Z" transform="translate(-11.48 -133.7)"/><g class="cls-5"><path class="cls-6" d="M1022.75,539.77l-.61,3.39c-2.38,13.66-2.13,25.55-1.89,37.05.33,14.73.62,28.67-4.14,45.86,10.63,6.37,17.38,15.1,23.92,23.54,7.48,9.67,14.55,18.78,27,24.72l2.41,1.14-2.25,1.42c-49.72,31.23-83.28,46.72-139.68,69.61l-1.24.49-.62-1.15c-21.51-40.28-42.73-81.42-63.08-122.29l-.72-1.44,1.49-.57c58.33-22.72,100.56-42.17,156.54-79.84Zm40.67,136c-11.67-6.24-18.8-15.45-25.72-24.38-6.55-8.47-13.35-17.24-24-23.35l-1-.58.32-1.11c4.95-17.28,4.65-31.28,4.34-46.09-.22-10.7-.46-21.73,1.4-34.26-54.35,36.28-96,55.5-152.8,77.67,19.93,40,40.69,80.19,61.71,119.59C982.31,721.06,1015.45,705.76,1063.42,675.78Z" transform="translate(-11.48 -133.7)"/></g><path class="cls-4" d="M898.76,640.28Q881,631.93,863.89,622.9" transform="translate(-11.48 -133.7)"/><path class="cls-6" d="M863.89,621.44a1.44,1.44,0,0,1,.69.17c11.37,6,23.08,11.83,34.81,17.34a1.47,1.47,0,1,1-1.25,2.65c-11.77-5.52-23.53-11.38-34.94-17.4a1.46,1.46,0,0,1,.69-2.76Z" transform="translate(-11.48 -133.7)"/><path class="cls-4" d="M224.44,623.31c-59.75-23.27-102-43.07-156.66-79.88,5.47,31.18-2.92,52.31,6.1,83.73-23.81,12.68-33.95,33.51-59.3,44.48,51.75,32.72,91.27,51.38,146.78,73.91q32.43-60.7,63.08-122.22Z" transform="translate(-11.48 -133.7)"/><g class="cls-7"><path class="cls-6" d="M65.77,540.29l2.86,1.93c55.82,37.57,98,57,156.36,79.72l1.51.6-.72,1.43c-20.36,40.86-41.59,82-63.1,122.28l-.62,1.17-1.22-.51c-54.2-22-93.69-40.31-147-74l-2.34-1.48L14,670.3c13.31-5.77,22.19-14.15,31.61-23,7.78-7.34,15.81-14.93,26.53-20.84-4.73-17.16-4.38-31-4-45.68.3-11.49.59-23.37-1.8-37.07ZM222.43,624.1C165.63,601.93,124,582.72,69.8,546.53c1.84,12.57,1.56,23.61,1.29,34.3-.38,14.75-.73,28.67,4.22,45.92l.34,1.14-1.06.57c-10.91,5.8-19.07,13.5-26.95,20.94-8.61,8.13-17.5,16.51-29.95,22.45,51.59,32.44,90.38,50.45,143,71.84C181.74,704.29,202.5,664.07,222.43,624.1Z" transform="translate(-11.48 -133.7)"/></g><path class="cls-4" d="M188.25,640.1q18.13-7.87,35.6-16.45" transform="translate(-11.48 -133.7)"/><path class="cls-6" d="M223.88,622.18a1.47,1.47,0,0,1,.65,2.78c-11.67,5.74-23.68,11.27-35.67,16.47a1.47,1.47,0,1,1-1.17-2.69c11.95-5.18,23.91-10.71,35.54-16.42A1.58,1.58,0,0,1,223.88,622.18Z" transform="translate(-11.48 -133.7)"/><path class="cls-4" d="M188.08,640.9a912,912,0,0,0,711.18.51q26.7,63,53.4,126.05a1049.33,1049.33,0,0,1-818.18-.58q26.81-63,53.59-126Z" transform="translate(-11.48 -133.7)"/><path class="cls-6" d="M187.28,639l1.35.58a904.76,904.76,0,0,0,355.61,72.31,904.75,904.75,0,0,0,354.43-71.81l1.35-.57,54.56,128.75-1.35.58A1051.44,1051.44,0,0,1,752,831a1053.41,1053.41,0,0,1-207.72,20.71A1053.51,1053.51,0,0,1,335.81,830.8a1049.78,1049.78,0,0,1-201.92-62.58l-1.35-.58Zm357,75.83A916.43,916.43,0,0,1,363,696.67a914.38,914.38,0,0,1-174.19-53.84L136.4,766.1a1041,1041,0,0,0,407.84,82.63,1041.26,1041.26,0,0,0,406.49-82.05L898.47,643.32a913,913,0,0,1-173.62,53.47,916,916,0,0,1-180.59,18Z" transform="translate(-11.48 -133.7)"/><path d="M322.79,450.24V395.75H356.5v6.14H329.26v18.19h22.93v5.76H329.26v24.4Z" transform="translate(-11.48 -133.7)"/><path d="M400.13,444.1v6.14H365.49V395.75h34v6.14H372v17.65h23.93v5.76H372v18.8Z" transform="translate(-11.48 -133.7)"/><path d="M409.78,450.24V395.75h17.68a25.33,25.33,0,0,1,10.74,2.15,22,22,0,0,1,7.73,5.83,24.79,24.79,0,0,1,4.63,8.64,35.23,35.23,0,0,1,1.55,10.55,34.48,34.48,0,0,1-1.73,11.24,24.41,24.41,0,0,1-5,8.6,22,22,0,0,1-7.79,5.52,25.51,25.51,0,0,1-10.17,2Zm35.79-27.32a28.87,28.87,0,0,0-1.19-8.48,18.51,18.51,0,0,0-3.52-6.64,16.43,16.43,0,0,0-5.71-4.33,18,18,0,0,0-7.69-1.58H416.24V444.1h11.22a18.08,18.08,0,0,0,7.79-1.61,15.81,15.81,0,0,0,5.68-4.45,20,20,0,0,0,3.45-6.72A28.56,28.56,0,0,0,445.57,422.92Z" transform="translate(-11.48 -133.7)"/><path d="M496.68,444.1v6.14H462V395.75h34v6.14H468.51v17.65h23.93v5.76H468.51v18.8Z" transform="translate(-11.48 -133.7)"/><path d="M506.32,450.24V395.75h21.85a13.14,13.14,0,0,1,6.22,1.5,16,16,0,0,1,4.89,4,19.25,19.25,0,0,1,3.19,5.6,18,18,0,0,1,1.15,6.33,20,20,0,0,1-.75,5.49,17.3,17.3,0,0,1-2.16,4.8,15,15,0,0,1-3.37,3.68,12.94,12.94,0,0,1-4.43,2.23l12.37,20.87H538L526.3,430.67H512.79v19.57Zm6.47-25.71h15.45a7.25,7.25,0,0,0,3.63-.92,8.75,8.75,0,0,0,2.77-2.49,12.32,12.32,0,0,0,1.8-3.65,14.35,14.35,0,0,0,.64-4.3,12.39,12.39,0,0,0-.75-4.33,13,13,0,0,0-2-3.61,9.33,9.33,0,0,0-3-2.46,7.68,7.68,0,0,0-3.56-.88h-15Z" transform="translate(-11.48 -133.7)"/><path d="M569.87,395.75h5.46l20.84,54.49h-6.9l-6-16H561.82l-6,16H549Zm11.93,33.16-9.2-25.18-9.49,25.18Z" transform="translate(-11.48 -133.7)"/><path d="M635.79,401.89H618.18v48.35h-6.47V401.89H594.1v-6.14h41.69Z" transform="translate(-11.48 -133.7)"/><path d="M643.92,450.24V395.75h6.47v54.49Z" transform="translate(-11.48 -133.7)"/><path d="M684.11,450.62a20.6,20.6,0,0,1-9.81-2.34,24.51,24.51,0,0,1-7.59-6.21,29,29,0,0,1-4.88-8.87A31,31,0,0,1,660.1,423a29.85,29.85,0,0,1,1.84-10.44,29.23,29.23,0,0,1,5.06-8.83,24.72,24.72,0,0,1,7.66-6.1,20.69,20.69,0,0,1,9.59-2.26,19.86,19.86,0,0,1,9.78,2.42,25.35,25.35,0,0,1,7.54,6.33,29.3,29.3,0,0,1,4.89,8.86,30.48,30.48,0,0,1,1.72,10.09,30.07,30.07,0,0,1-1.83,10.44,29.13,29.13,0,0,1-5,8.79,24.39,24.39,0,0,1-7.62,6.06A20.69,20.69,0,0,1,684.11,450.62ZM666.64,423a25.82,25.82,0,0,0,1.26,8,22.45,22.45,0,0,0,3.56,6.86,17.36,17.36,0,0,0,5.53,4.76,14.73,14.73,0,0,0,7.19,1.77,14.36,14.36,0,0,0,7.33-1.88,18.31,18.31,0,0,0,5.5-4.91,22.4,22.4,0,0,0,3.45-6.87,26.2,26.2,0,0,0-.07-15.77,21.62,21.62,0,0,0-3.6-6.83,18.07,18.07,0,0,0-5.53-4.72,14.36,14.36,0,0,0-7.08-1.77,14.64,14.64,0,0,0-7.33,1.84,18,18,0,0,0-5.5,4.84,22.6,22.6,0,0,0-3.49,6.83A25.81,25.81,0,0,0,666.64,423Z" transform="translate(-11.48 -133.7)"/><path d="M724.44,408.65v41.59H718V395.75h5l31.62,42.44V395.83h6.47v54.41h-5.46Z" transform="translate(-11.48 -133.7)"/><path d="M323,512.19h-3.29l.53-2.79h3.34l.09-.72a16.58,16.58,0,0,1,1.21-4.44,12.49,12.49,0,0,1,2.11-3.33,8.78,8.78,0,0,1,2.75-2.09,7.24,7.24,0,0,1,3.17-.73,7.41,7.41,0,0,1,2.64.47,6.6,6.6,0,0,1,2.1,1.24l-1.5,2.53a3.46,3.46,0,0,0-1.4-.88,5.23,5.23,0,0,0-1.79-.31,4.6,4.6,0,0,0-3.7,1.91,12.93,12.93,0,0,0-2.25,5.53l-.14.82h6.53l-.54,2.79h-6.57l-7,35.06H316Z" transform="translate(-11.48 -133.7)"/><path d="M342,536.82a8.68,8.68,0,0,1-4-.9,8.88,8.88,0,0,1-3-2.43,10.87,10.87,0,0,1-1.86-3.56,14.07,14.07,0,0,1-.66-4.36,16.1,16.1,0,0,1,1.24-6.25,18,18,0,0,1,3.31-5.3,16.79,16.79,0,0,1,4.79-3.69,12.27,12.27,0,0,1,5.7-1.39,8.51,8.51,0,0,1,4,.9,9.19,9.19,0,0,1,3,2.43,10.52,10.52,0,0,1,1.89,3.59,14.3,14.3,0,0,1,.65,4.39,16.12,16.12,0,0,1-1.23,6.19,18.27,18.27,0,0,1-3.29,5.3,16.39,16.39,0,0,1-4.79,3.69A12.42,12.42,0,0,1,342,536.82Zm.63-3.09a8.54,8.54,0,0,0,4-1.06,12.73,12.73,0,0,0,3.53-2.84,14.91,14.91,0,0,0,2.51-4.13,12.9,12.9,0,0,0,1-5,11.52,11.52,0,0,0-.49-3.41,8.7,8.7,0,0,0-1.37-2.76,6.88,6.88,0,0,0-2.13-1.83A5.6,5.6,0,0,0,347,512a8.32,8.32,0,0,0-4,1.05,12.63,12.63,0,0,0-3.53,2.87,14.8,14.8,0,0,0-2.54,4.18,13.11,13.11,0,0,0-1,5,11.57,11.57,0,0,0,.48,3.39,8.35,8.35,0,0,0,1.38,2.73,6.44,6.44,0,0,0,2.13,1.81A5.79,5.79,0,0,0,342.65,533.73Z" transform="translate(-11.48 -133.7)"/><path d="M364.85,509.4h3.09l-1.3,6.46a17.07,17.07,0,0,1,4.28-4.68,8.92,8.92,0,0,1,4.86-1.83,5.92,5.92,0,0,1,.65,0,3.92,3.92,0,0,1,.51.07l-.63,3.05a10.78,10.78,0,0,0-5.85,2,13.28,13.28,0,0,0-4.35,5.12l-3.29,16.73h-3.29Z" transform="translate(-11.48 -133.7)"/><path d="M394.75,536.31V493.53h3.95v42.78Z" transform="translate(-11.48 -133.7)"/><path d="M412.69,501.36v34.95h-3.95V493.53h3.05l26.52,35.61V493.59h3.95v42.72h-3.44Z" transform="translate(-11.48 -133.7)"/><path d="M452.3,536.31V493.53h26.29v3.74H456.25V513H475.1v3.5H456.25v19.82Z" transform="translate(-11.48 -133.7)"/><path d="M500.77,536.61a16,16,0,0,1-7.65-1.84,19.09,19.09,0,0,1-5.95-4.88,22.65,22.65,0,0,1-3.84-7,24.41,24.41,0,0,1-1.35-8,23.54,23.54,0,0,1,1.44-8.19,22.81,22.81,0,0,1,4-6.93,19.21,19.21,0,0,1,6-4.79,15.89,15.89,0,0,1,7.44-1.78,15.61,15.61,0,0,1,7.65,1.9,19.3,19.3,0,0,1,5.92,5,23.27,23.27,0,0,1,3.81,7,24,24,0,0,1,1.36,7.92,23.54,23.54,0,0,1-1.44,8.19,23,23,0,0,1-4,6.9,19.28,19.28,0,0,1-5.95,4.76A16,16,0,0,1,500.77,536.61Zm-14.84-21.69a21.29,21.29,0,0,0,1.07,6.72,18.68,18.68,0,0,0,3.05,5.72,15.21,15.21,0,0,0,4.68,4,12.47,12.47,0,0,0,6,1.47,12.33,12.33,0,0,0,6.15-1.56,15.33,15.33,0,0,0,4.68-4.1,19.17,19.17,0,0,0,3-5.72,20.89,20.89,0,0,0,0-13.23,18.79,18.79,0,0,0-3.08-5.69,15.51,15.51,0,0,0-4.68-3.95,13,13,0,0,0-12.13.06,14.9,14.9,0,0,0-4.69,4.07,19.65,19.65,0,0,0-3,5.72A21,21,0,0,0,485.93,514.92Z" transform="translate(-11.48 -133.7)"/><path d="M527,536.31V493.53h16.93a9.8,9.8,0,0,1,4.77,1.18,12.5,12.5,0,0,1,3.75,3.07,14.2,14.2,0,0,1,2.45,4.31,14,14,0,0,1,.88,4.88,15.53,15.53,0,0,1-.65,4.49,14.19,14.19,0,0,1-1.8,3.85,11.33,11.33,0,0,1-2.8,2.89,9.39,9.39,0,0,1-3.67,1.6l9.82,16.51h-4.45l-9.43-15.79H531v15.79Zm4-19.52H544a6.29,6.29,0,0,0,3.19-.82,7.69,7.69,0,0,0,2.46-2.2,11.09,11.09,0,0,0,1.58-3.13,12,12,0,0,0,.56-3.67,10.81,10.81,0,0,0-.65-3.71,10.19,10.19,0,0,0-1.75-3.1,8.47,8.47,0,0,0-2.59-2.11,6.69,6.69,0,0,0-3.13-.78H531Z" transform="translate(-11.48 -133.7)"/><path d="M599.34,536.31V501.18l-14.62,27.17h-2.31L567.8,501.18v35.13h-3.95V493.53h4.06l15.63,29.28,15.74-29.28h4v42.78Z" transform="translate(-11.48 -133.7)"/><path d="M625.74,493.53h3.33l16.65,42.78h-4.18l-5.19-13.38h-18l-5.13,13.38H609Zm9.71,26.09-8.07-21.15-8.18,21.15Z" transform="translate(-11.48 -133.7)"/><path d="M676,497.27H661.68v39h-3.95v-39H643.46v-3.74H676Z" transform="translate(-11.48 -133.7)"/><path d="M681.94,536.31V493.53h3.95v42.78Z" transform="translate(-11.48 -133.7)"/><path d="M693.28,514.62a24.15,24.15,0,0,1,1.27-7.68,21.73,21.73,0,0,1,3.69-6.84,19.1,19.1,0,0,1,6-4.91,16.81,16.81,0,0,1,8.07-1.9,16,16,0,0,1,9.17,2.59,15.55,15.55,0,0,1,5.62,6.75L724,504.68a12.79,12.79,0,0,0-2.34-3.56,13.47,13.47,0,0,0-3-2.35,12.11,12.11,0,0,0-3.27-1.29,14.82,14.82,0,0,0-3.33-.39,12.75,12.75,0,0,0-6.38,1.56,15,15,0,0,0-4.65,4.1,18.32,18.32,0,0,0-2.85,5.69,22,22,0,0,0-1,6.42,20.21,20.21,0,0,0,1.15,6.81,20,20,0,0,0,3.16,5.75,15.55,15.55,0,0,0,4.74,4,12.41,12.41,0,0,0,6,1.47,14.19,14.19,0,0,0,3.47-.45,13,13,0,0,0,3.44-1.44,14.93,14.93,0,0,0,3.07-2.47,12.88,12.88,0,0,0,2.37-3.59l3.28,1.81a13.41,13.41,0,0,1-2.71,4.25,18.41,18.41,0,0,1-3.9,3.1,19.15,19.15,0,0,1-4.54,1.93,17.71,17.71,0,0,1-4.71.66,15.13,15.13,0,0,1-7.56-1.93,20,20,0,0,1-5.92-5,23.65,23.65,0,0,1-3.87-7.05A24.19,24.19,0,0,1,693.28,514.62Z" transform="translate(-11.48 -133.7)"/><path d="M758.05,501.54a12.23,12.23,0,0,0-4.51-3.31A15.65,15.65,0,0,0,747.1,497c-3.53,0-6.11.71-7.72,2.13a7.37,7.37,0,0,0-2.43,5.82,6.68,6.68,0,0,0,.65,3.16,5.8,5.8,0,0,0,2,2.14,13.92,13.92,0,0,0,3.47,1.57c1.41.44,3.08.88,5,1.32a51.3,51.3,0,0,1,5.79,1.63,15.89,15.89,0,0,1,4.37,2.26,9.22,9.22,0,0,1,2.76,3.28,10.78,10.78,0,0,1,1,4.82,11.34,11.34,0,0,1-1.07,5.12,10,10,0,0,1-3,3.62,13.13,13.13,0,0,1-4.57,2.14,24.13,24.13,0,0,1-21.89-5.52l2-3.43a16.08,16.08,0,0,0,2.57,2.29,19.13,19.13,0,0,0,3.33,1.9,20.19,20.19,0,0,0,3.92,1.26,20.84,20.84,0,0,0,4.4.45,13.15,13.15,0,0,0,7.48-1.83,6.33,6.33,0,0,0,2.68-5.58,6.19,6.19,0,0,0-3-5.69,15.5,15.5,0,0,0-3.78-1.72q-2.25-.72-5.25-1.44c-2.1-.53-4-1.07-5.53-1.63a14.51,14.51,0,0,1-4-2.11,8.16,8.16,0,0,1-2.46-3,10.53,10.53,0,0,1-.81-4.37,12.65,12.65,0,0,1,1-5.27,10.3,10.3,0,0,1,3-3.86,14,14,0,0,1,4.52-2.35,19.21,19.21,0,0,1,5.75-.81,18.44,18.44,0,0,1,7.14,1.3,18.75,18.75,0,0,1,5.67,3.64Z" transform="translate(-11.48 -133.7)"/><path d="M321,622.37V585.71H335.2a8.46,8.46,0,0,1,4.09,1,11,11,0,0,1,3.22,2.63,12.6,12.6,0,0,1,2.12,3.69,11.77,11.77,0,0,1,.78,4.19,13.08,13.08,0,0,1-.73,4.36,12,12,0,0,1-2,3.69,10.21,10.21,0,0,1-3.12,2.58,8.27,8.27,0,0,1-4,1H324.37v13.53Zm3.39-16.73h11a5.48,5.48,0,0,0,2.73-.69,6.91,6.91,0,0,0,2.1-1.86,8.73,8.73,0,0,0,1.36-2.69,10.45,10.45,0,0,0,.48-3.17,9.33,9.33,0,0,0-.55-3.23,8.84,8.84,0,0,0-1.5-2.66,6.84,6.84,0,0,0-2.23-1.78,5.89,5.89,0,0,0-2.68-.65H324.37Z" transform="translate(-11.48 -133.7)"/><path d="M356.13,622.37V585.71h14.5a8.46,8.46,0,0,1,4.09,1,11,11,0,0,1,3.22,2.63A12.33,12.33,0,0,1,380,593a12.19,12.19,0,0,1,.75,4.19,13.16,13.16,0,0,1-.56,3.84,12.12,12.12,0,0,1-1.54,3.31,9.6,9.6,0,0,1-2.4,2.48,8.12,8.12,0,0,1-3.14,1.36l8.41,14.15h-3.82l-8.07-13.53H359.51v13.53Zm3.38-16.73h11.22a5.48,5.48,0,0,0,2.73-.69,6.68,6.68,0,0,0,2.11-1.89,9.37,9.37,0,0,0,1.35-2.68,10.28,10.28,0,0,0,.49-3.15,9.22,9.22,0,0,0-.56-3.18,8.84,8.84,0,0,0-1.5-2.66,7.28,7.28,0,0,0-2.22-1.81,5.82,5.82,0,0,0-2.69-.67H359.51Z" transform="translate(-11.48 -133.7)"/><path d="M406.6,622.63a13.75,13.75,0,0,1-6.55-1.57,16.43,16.43,0,0,1-5.11-4.19,19.3,19.3,0,0,1-3.29-6,21,21,0,0,1-1.16-6.87,20,20,0,0,1,1.24-7,19.57,19.57,0,0,1,3.41-5.94,16.77,16.77,0,0,1,5.12-4.11,13.81,13.81,0,0,1,6.39-1.52,13.37,13.37,0,0,1,6.55,1.63,16.56,16.56,0,0,1,5.08,4.26,19.91,19.91,0,0,1,3.26,6,20.58,20.58,0,0,1-.07,13.82,19.33,19.33,0,0,1-3.39,5.91,16.54,16.54,0,0,1-5.1,4.08A13.77,13.77,0,0,1,406.6,622.63ZM393.88,604a18.19,18.19,0,0,0,.92,5.76,15.94,15.94,0,0,0,2.61,4.91,13.15,13.15,0,0,0,4,3.4,11.11,11.11,0,0,0,10.45-.07,13.12,13.12,0,0,0,4-3.51,16.47,16.47,0,0,0,2.54-4.91,17.84,17.84,0,0,0-.05-11.34,15.92,15.92,0,0,0-2.63-4.88,13.29,13.29,0,0,0-4-3.38,10.52,10.52,0,0,0-5.12-1.26,10.73,10.73,0,0,0-5.27,1.31,12.82,12.82,0,0,0-4,3.49,16.76,16.76,0,0,0-2.54,4.9A18.09,18.09,0,0,0,393.88,604Z" transform="translate(-11.48 -133.7)"/><path d="M434.15,622.37V585.71h22.53v3.2H437.53v13.48h16.16v3H437.53v17Z" transform="translate(-11.48 -133.7)"/><path d="M490.76,619.17v3.2H467.69V585.71h22.64v3.2H471.08v13.22h16.78v3H471.08v14Z" transform="translate(-11.48 -133.7)"/><path d="M521.55,592.58a10.48,10.48,0,0,0-3.87-2.84,13.22,13.22,0,0,0-5.51-1.09q-4.54,0-6.63,1.84a6.31,6.31,0,0,0-2.08,5,5.8,5.8,0,0,0,.56,2.71,4.9,4.9,0,0,0,1.72,1.83,11.45,11.45,0,0,0,3,1.35c1.21.38,2.64.75,4.28,1.13a44.93,44.93,0,0,1,5,1.4,14.06,14.06,0,0,1,3.75,1.93,8,8,0,0,1,2.37,2.82,9.35,9.35,0,0,1,.82,4.13,9.83,9.83,0,0,1-.92,4.39,8.65,8.65,0,0,1-2.56,3.1,11.35,11.35,0,0,1-3.92,1.83,19.55,19.55,0,0,1-5,.59,19.75,19.75,0,0,1-13.79-5.31l1.7-3a13.26,13.26,0,0,0,2.2,2,15.12,15.12,0,0,0,2.85,1.63,17.16,17.16,0,0,0,3.36,1.09,18.32,18.32,0,0,0,3.77.38,11.23,11.23,0,0,0,6.41-1.57,5.4,5.4,0,0,0,2.3-4.78,5.86,5.86,0,0,0-.65-2.87,5.94,5.94,0,0,0-2-2,13.22,13.22,0,0,0-3.24-1.47c-1.29-.41-2.79-.83-4.5-1.24s-3.39-.91-4.74-1.39a12.59,12.59,0,0,1-3.43-1.81,6.88,6.88,0,0,1-2.11-2.61A8.89,8.89,0,0,1,500,596a10.82,10.82,0,0,1,.9-4.52,8.75,8.75,0,0,1,2.53-3.31,11.67,11.67,0,0,1,3.87-2,16.34,16.34,0,0,1,4.94-.7,15.85,15.85,0,0,1,6.11,1.11,16.11,16.11,0,0,1,4.86,3.13Z" transform="translate(-11.48 -133.7)"/><path d="M556,592.58a10.48,10.48,0,0,0-3.87-2.84,13.27,13.27,0,0,0-5.52-1.09q-4.55,0-6.62,1.84a6.28,6.28,0,0,0-2.08,5,5.68,5.68,0,0,0,.56,2.71,5,5,0,0,0,1.71,1.83,11.69,11.69,0,0,0,3,1.35c1.2.38,2.63.75,4.28,1.13a44.73,44.73,0,0,1,5,1.4,13.76,13.76,0,0,1,3.75,1.93,8,8,0,0,1,2.37,2.82,9.21,9.21,0,0,1,.82,4.13,9.7,9.7,0,0,1-.92,4.39,8.55,8.55,0,0,1-2.56,3.1,11.27,11.27,0,0,1-3.92,1.83,19.44,19.44,0,0,1-5,.59,19.72,19.72,0,0,1-13.78-5.31l1.69-3a13.68,13.68,0,0,0,2.2,2,15.53,15.53,0,0,0,2.86,1.63,16.74,16.74,0,0,0,3.36,1.09,18.32,18.32,0,0,0,3.77.38,11.23,11.23,0,0,0,6.41-1.57,5.4,5.4,0,0,0,2.29-4.78,5.75,5.75,0,0,0-.65-2.87,5.85,5.85,0,0,0-2-2,13.22,13.22,0,0,0-3.24-1.47c-1.29-.41-2.79-.83-4.5-1.24s-3.38-.91-4.73-1.39a12.66,12.66,0,0,1-3.44-1.81,6.85,6.85,0,0,1-2.1-2.61,8.89,8.89,0,0,1-.7-3.74,10.82,10.82,0,0,1,.89-4.52,8.78,8.78,0,0,1,2.54-3.31,11.67,11.67,0,0,1,3.87-2,16.27,16.27,0,0,1,4.93-.7,15.9,15.9,0,0,1,6.12,1.11,16.11,16.11,0,0,1,4.86,3.13Z" transform="translate(-11.48 -133.7)"/><path d="M570.31,622.37V585.71h3.39v36.66Z" transform="translate(-11.48 -133.7)"/><path d="M601.2,622.63a13.82,13.82,0,0,1-6.56-1.57,16.51,16.51,0,0,1-5.1-4.19,19.3,19.3,0,0,1-3.29-6,21,21,0,0,1-1.16-6.87,20,20,0,0,1,1.24-7,19.36,19.36,0,0,1,3.41-5.94,16.65,16.65,0,0,1,5.12-4.11,13.81,13.81,0,0,1,6.39-1.52,13.37,13.37,0,0,1,6.55,1.63,16.68,16.68,0,0,1,5.08,4.26,19.91,19.91,0,0,1,3.26,6,20.62,20.62,0,0,1,1.16,6.79,20.28,20.28,0,0,1-1.23,7,19.33,19.33,0,0,1-3.39,5.91,16.54,16.54,0,0,1-5.1,4.08A13.77,13.77,0,0,1,601.2,622.63ZM588.48,604a17.91,17.91,0,0,0,.92,5.76,15.94,15.94,0,0,0,2.61,4.91,13,13,0,0,0,4,3.4,11.11,11.11,0,0,0,10.45-.07,13.12,13.12,0,0,0,4-3.51,16.7,16.7,0,0,0,2.54-4.91,17.84,17.84,0,0,0,0-11.34,16.14,16.14,0,0,0-2.63-4.88,13.29,13.29,0,0,0-4-3.38,10.52,10.52,0,0,0-5.12-1.26,10.7,10.7,0,0,0-5.27,1.31,12.82,12.82,0,0,0-4,3.49,16.76,16.76,0,0,0-2.54,4.9A18.09,18.09,0,0,0,588.48,604Z" transform="translate(-11.48 -133.7)"/><path d="M632.13,592.42v30h-3.38V585.71h2.61l22.73,30.52V585.76h3.38v36.61h-3Z" transform="translate(-11.48 -133.7)"/><path d="M681.78,585.71h2.85l14.27,36.66h-3.58l-4.45-11.46H675.45L671,622.37h-3.62Zm8.32,22.36-6.92-18.13-7,18.13Z" transform="translate(-11.48 -133.7)"/><path d="M708.89,622.37V585.71h3.39v33.46h19.83v3.2Z" transform="translate(-11.48 -133.7)"/><path d="M762.22,592.58a10.48,10.48,0,0,0-3.87-2.84,13.22,13.22,0,0,0-5.51-1.09q-4.55,0-6.63,1.84a6.31,6.31,0,0,0-2.08,5,5.8,5.8,0,0,0,.56,2.71,4.9,4.9,0,0,0,1.72,1.83,11.45,11.45,0,0,0,3,1.35c1.21.38,2.64.75,4.28,1.13a44.93,44.93,0,0,1,5,1.4,13.84,13.84,0,0,1,3.74,1.93,7.79,7.79,0,0,1,2.37,2.82,9.2,9.2,0,0,1,.83,4.13,9.83,9.83,0,0,1-.92,4.39,8.68,8.68,0,0,1-2.57,3.1,11.22,11.22,0,0,1-3.91,1.83,19.55,19.55,0,0,1-5,.59,19.75,19.75,0,0,1-13.79-5.31l1.7-3a13.26,13.26,0,0,0,2.2,2,15.12,15.12,0,0,0,2.85,1.63,17.16,17.16,0,0,0,3.36,1.09,18.32,18.32,0,0,0,3.77.38,11.23,11.23,0,0,0,6.41-1.57,5.4,5.4,0,0,0,2.3-4.78,5.86,5.86,0,0,0-.65-2.87,5.94,5.94,0,0,0-2-2,13.39,13.39,0,0,0-3.24-1.47c-1.29-.41-2.79-.83-4.5-1.24s-3.39-.91-4.74-1.39a12.59,12.59,0,0,1-3.43-1.81,6.88,6.88,0,0,1-2.11-2.61,8.89,8.89,0,0,1-.7-3.74,11,11,0,0,1,.89-4.52,8.88,8.88,0,0,1,2.54-3.31,11.67,11.67,0,0,1,3.87-2,16.34,16.34,0,0,1,4.94-.7,15.89,15.89,0,0,1,6.11,1.11,16.11,16.11,0,0,1,4.86,3.13Z" transform="translate(-11.48 -133.7)"/><text class="cls-8" transform="translate(287.36 636.95) rotate(12.34) scale(1.1 1)">C</text><text class="cls-8" transform="matrix(1.08, 0.19, -0.17, 0.98, 331.12, 646.48)">P</text><text class="cls-8" transform="matrix(1.09, 0.15, -0.13, 0.99, 371.43, 653.64)">D</text><text class="cls-8" transform="matrix(1.1, 0.11, -0.1, 0.99, 418.15, 659.63)"> </text><text class="cls-8" transform="translate(434.95 661.5) rotate(4.28) scale(1.1 1)">E</text><text class="cls-8" transform="translate(474.59 664.58) rotate(1.81) scale(1.1 1)">N</text><text class="cls-8" transform="translate(525.4 666.13) rotate(-0.88) scale(1.1 1)">D</text><text class="cls-8" transform="translate(572.35 665.43) rotate(-3.51) scale(1.1 1)">O</text><text class="cls-8" transform="translate(621.34 662.35) rotate(-6.04) scale(1.1 1)">R</text><text class="cls-8" transform="translate(664.27 657.77) rotate(-8.32) scale(1.1 1)">S</text><text class="cls-8" transform="translate(703.9 651.97) rotate(-10.5) scale(1.1 1)">E</text><text class="cls-8" transform="translate(743.02 644.79) rotate(-12.87) scale(1.1 1)">D</text></svg>